<svg width="826" height="632" viewBox="0 0 826 632" fill="none" xmlns="http://www.w3.org/2000/svg">
<path d="M302 239.155V96.3534C301.999 90.7991 304.251 85.428 308.347 81.2124C312.443 76.9967 318.113 74.215 324.331 73.3708L442.831 57.2702C446.583 56.7606 450.417 56.9736 454.067 57.8945C457.718 58.8154 461.1 60.4224 463.982 62.6054C466.863 64.7884 469.176 67.4957 470.761 70.5418C472.347 73.5878 473.167 76.9005 473.167 80.2528V215.905" stroke="black" stroke-width="7" stroke-linecap="round" stroke-linejoin="round"/>
<path d="M302 134.53L473.167 111.28" stroke="black" stroke-width="7"/>
<path d="M302 239.155C302 248.404 297.838 257.275 290.431 263.815C283.023 270.356 272.976 274.03 262.5 274.03C252.024 274.03 241.977 270.356 234.569 263.815C227.162 257.275 223 248.404 223 239.155C223 219.892 240.683 215.905 262.5 215.905C284.317 215.905 302 219.892 302 239.155ZM473.167 215.905C473.167 225.154 469.005 234.025 461.597 240.565C454.19 247.106 444.143 250.78 433.667 250.78C423.191 250.78 413.144 247.106 405.736 240.565C398.328 234.025 394.167 225.154 394.167 215.905C394.167 196.642 411.85 192.655 433.667 192.655C455.484 192.655 473.167 196.642 473.167 215.905Z" stroke="black" stroke-width="7" stroke-linecap="round" stroke-linejoin="round"/>
<line x1="100.605" y1="507.424" x2="208.094" y2="464.994" stroke="black" stroke-width="7" stroke-linecap="round"/>
<path d="M73.6342 349.964L203.024 303.391C209.628 301.014 216.821 301.015 223.416 303.417C250.225 313.181 324.255 340.142 375.244 358.713" stroke="black" stroke-width="7" stroke-linecap="round"/>
<line x1="427.184" y1="467.015" x2="460.684" y2="480.415" stroke="black" stroke-width="7" stroke-linecap="round"/>
<line x1="211.358" y1="465.487" x2="438.157" y2="584.24" stroke="black" stroke-width="7" stroke-linecap="round"/>
<line x1="262.275" y1="426.242" x2="271.291" y2="430.379" stroke="black" stroke-width="7" stroke-linecap="round"/>
<line x1="286.275" y1="436.242" x2="360.735" y2="470.398" stroke="black" stroke-width="7" stroke-linecap="round"/>
<line x1="441.562" y1="584.406" x2="652.075" y2="499.036" stroke="black" stroke-width="7" stroke-linecap="round"/>
<line x1="459.562" y1="480.352" x2="610.763" y2="419.036" stroke="black" stroke-width="7" stroke-linecap="round"/>
<line x1="436.562" y1="410.356" x2="579.422" y2="352.422" stroke="black" stroke-width="7" stroke-linecap="round"/>
<path d="M611.556 418.218C731.464 377.301 733.987 471.697 650.699 499.051" stroke="black" stroke-width="7"/>
<path d="M544.635 286.964C576.634 277.964 613.634 317.964 576.634 351.964" stroke="black" stroke-width="7"/>
<path d="M373.505 358.152C495.634 418.964 425.634 501.964 360.634 469.964" stroke="black" stroke-width="7"/>
<path d="M579.634 352.964C660.634 319.964 694.634 402.964 615.634 416.965M375.634 360.964L545.835 286.148" stroke="black" stroke-width="7"/>
</svg>
