<svg id="Layer_1" xmlns="http://www.w3.org/2000/svg" viewBox="0 0 30 30"><style>.st0{fill:url(#SVGID_1_)}.st1{fill:url(#SVGID_2_)}.st2{fill:url(#SVGID_3_)}.st3{fill:url(#SVGID_4_)}.st4{fill:url(#SVGID_5_)}</style><linearGradient id="SVGID_1_" gradientUnits="userSpaceOnUse" x1="15" y1="30" x2="15"><stop offset="0" stop-color="#e13f8c"/><stop offset=".503" stop-color="#9d2ad5"/><stop offset="1" stop-color="#27aae1"/></linearGradient><path class="st0" d="M15 0C6.73 0 0 6.73 0 15s6.73 15 15 15 15-6.73 15-15S23.27 0 15 0zm12.69 15c0 7-5.69 12.69-12.69 12.69S2.31 22 2.31 15 8 2.31 15 2.31 27.69 8 27.69 15z"/><linearGradient id="SVGID_2_" gradientUnits="userSpaceOnUse" x1="21.178" y1="29.994" x2="21.178" y2="-.003"><stop offset="0" stop-color="#e13f8c"/><stop offset=".503" stop-color="#9d2ad5"/><stop offset="1" stop-color="#27aae1"/></linearGradient><path class="st1" d="M21.19 13.53c-.01 0-.01 0 0 0-.25 0-.47.09-.65.26a.91.91 0 0 0-.27.64l-.01 1.12c0 .5.4.91.91.92.5 0 .91-.41.91-.91l.01-1.12c0-.5-.4-.91-.9-.91z"/><linearGradient id="SVGID_3_" gradientUnits="userSpaceOnUse" x1="17.885" y1="29.994" x2="17.885" y2="-.003"><stop offset="0" stop-color="#e13f8c"/><stop offset=".503" stop-color="#9d2ad5"/><stop offset="1" stop-color="#27aae1"/></linearGradient><path class="st2" d="M17.91 10.45c-.01 0-.01 0 0 0-.5 0-.91.41-.92.91l-.03 7.28c0 .5.4.91.91.92a.9.9 0 0 0 .64-.26c.17-.17.27-.4.27-.64l.03-7.28a.94.94 0 0 0-.26-.65.843.843 0 0 0-.64-.28z"/><linearGradient id="SVGID_4_" gradientUnits="userSpaceOnUse" x1="14.591" y1="29.994" x2="14.591" y2="-.003"><stop offset="0" stop-color="#e13f8c"/><stop offset=".503" stop-color="#9d2ad5"/><stop offset="1" stop-color="#27aae1"/></linearGradient><path class="st3" d="M14.63 7.45c-.01 0-.01 0 0 0-.5 0-.91.41-.92.91l-.06 13.27c0 .24.09.47.26.65.17.17.4.27.64.27.5 0 .91-.41.91-.91l.06-13.27a.886.886 0 0 0-.89-.92z"/><linearGradient id="SVGID_5_" gradientUnits="userSpaceOnUse" x1="10.074" y1="29.994" x2="10.074" y2="-.003"><stop offset="0" stop-color="#e13f8c"/><stop offset=".503" stop-color="#9d2ad5"/><stop offset="1" stop-color="#27aae1"/></linearGradient><path class="st4" d="M11.74 7.35a1.22 1.22 0 0 0-1.11-.14c-.55.2-1.04.51-1.46.91a4.01 4.01 0 0 0-1.21 2.92c.01 1.1.45 2.14 1.24 2.91l.97.94c.03.03.04.06.04.1s-.02.07-.04.1l-.95.91c-.83.79-1.3 1.89-1.3 3.03 0 1.1.42 2.11 1.2 2.85.42.4.91.71 1.46.91a1.187 1.187 0 0 0 1.1-.13c.32-.22.51-.58.51-.97l.06-13.35c-.01-.41-.19-.76-.51-.99z"/></svg>