<svg id="Layer_1" xmlns="http://www.w3.org/2000/svg" viewBox="0 0 30 30"><style>.st0{fill-rule:evenodd;clip-rule:evenodd;fill:#040204}</style><path class="st0" d="M27.9 21.99a21.96 21.96 0 0 1-1.95 3.64c-1.27 1.93-3.05 4.33-5.26 4.35-1.97 0-2.47-1.28-5.14-1.27s-3.22 1.29-5.18 1.27c-2.22-.02-3.9-2.19-5.18-4.11-3.54-5.39-3.91-11.71-1.73-15.07C5.01 8.4 7.46 7 9.75 7s3.82 1.28 5.76 1.28c1.88 0 3.02-1.29 5.73-1.29 2.05 0 4.22 1.11 5.76 3.04-5.07 2.78-4.24 10 .88 11.94l.02.02z"/><path class="st0" d="M19.21 4.85c.98-1.26 1.73-3.05 1.46-4.87-1.79.21-3.43 1.1-4.59 2.47-1 1.21-1.82 3.01-1.5 4.75 1.76.05 3.58-1 4.63-2.35z"/></svg>