<svg id="Layer_1" xmlns="http://www.w3.org/2000/svg" viewBox="0 0 30 30"><style>.st0{fill:#a9cf38}</style><path class="st0" d="M25.92 16.57c0-6.02-4.88-10.89-10.89-10.89S4.14 10.56 4.14 16.57c-.02 2.77 1.05 5.44 2.98 7.42.26.27.69.27.96.01l.01-.01 1.16-1.1c.26-.26.29-.68.06-.97a7.78 7.78 0 0 1-2.13-5.42c0-4.37 3.54-7.91 7.91-7.91S23 12.14 23 16.51a8.066 8.066 0 0 1-2.13 5.42.68.68 0 0 0 .05.96l.01.01 1.16 1.1c.28.25.7.25.97 0a11.27 11.27 0 0 0 2.86-7.43"/><path class="st0" d="M30 16.51c-.01-1.48-.24-2.96-.67-4.38a.662.662 0 0 0-.82-.44c-.01 0-.02.01-.03.01l-1.52.49c-.35.11-.54.47-.44.82 0 .01.01.02.01.03.36 1.12.55 2.29.55 3.47 0 2.1-.56 4.16-1.64 5.96-.17.32-.07.72.24.91l1.4.85c.32.17.72.07.91-.24 1.33-2.27 2.02-4.85 2.01-7.48M4.62 22.47c-1.09-1.8-1.66-3.86-1.64-5.96 0-1.18.18-2.35.55-3.47a.748.748 0 0 0-.49-.85l-1.52-.49a.656.656 0 0 0-.84.39c0 .01-.01.02-.01.03-.43 1.42-.66 2.9-.67 4.38.01 2.63.72 5.22 2.07 7.48.19.31.59.42.91.24l1.4-.85c.31-.18.42-.58.24-.9z"/></svg>