<svg id="Layer_1" xmlns="http://www.w3.org/2000/svg" viewBox="0 0 30 30"><style>.st0{fill:#29ab70}.st1{fill:url(#SVGID_1_)}.st2{fill:url(#SVGID_2_)}.st3{fill:url(#SVGID_3_)}.st4{fill:url(#SVGID_4_)}.st5{fill:url(#SVGID_5_)}.st6{fill:url(#SVGID_6_)}.st7{fill:url(#SVGID_7_)}.st8{fill:url(#SVGID_8_)}.st9{fill:url(#SVGID_9_)}</style><g id="Colored_x5F_Equalizer"><path class="st0" d="M30 5.2h-6.5V9H30V5.2z"/><linearGradient id="SVGID_1_" gradientUnits="userSpaceOnUse" x1="27.179" y1="17.244" x2="26.335" y2="22.025" gradientTransform="matrix(1 0 0 -1 0 32)"><stop offset="0" stop-color="#2c8c9d"/><stop offset=".04" stop-color="#298e9a"/><stop offset=".39" stop-color="#129c83"/><stop offset=".72" stop-color="#05a475"/><stop offset="1" stop-color="#00a770"/></linearGradient><path class="st1" d="M30 10.5h-6.5v3.8H30v-3.8z"/><linearGradient id="SVGID_2_" gradientUnits="userSpaceOnUse" x1="23.416" y1="12.663" x2="30.097" y2="16.068" gradientTransform="matrix(1 0 0 -1 0 32)"><stop offset="0" stop-color="#2839ba"/><stop offset="1" stop-color="#148cb3"/></linearGradient><path class="st2" d="M30 15.7h-6.5v3.8H30v-3.8z"/><linearGradient id="SVGID_3_" gradientUnits="userSpaceOnUse" y1="9.094" x2="6.486" y2="9.094" gradientTransform="matrix(1 0 0 -1 0 32)"><stop offset="0" stop-color="#f6a500"/><stop offset="1" stop-color="#f29100"/></linearGradient><path class="st3" d="M6.5 21H0v3.8h6.5V21z"/><linearGradient id="SVGID_4_" gradientUnits="userSpaceOnUse" x1="7.837" y1="9.094" x2="14.323" y2="9.094" gradientTransform="matrix(1 0 0 -1 0 32)"><stop offset="0" stop-color="#f29100"/><stop offset="1" stop-color="#d12f5f"/></linearGradient><path class="st4" d="M14.3 21H7.8v3.8h6.5V21z"/><linearGradient id="SVGID_5_" gradientUnits="userSpaceOnUse" x1="15.677" y1="9.094" x2="22.163" y2="9.094" gradientTransform="matrix(1 0 0 -1 0 32)"><stop offset="0" stop-color="#b4197c"/><stop offset="1" stop-color="#472ead"/></linearGradient><path class="st5" d="M22.2 21h-6.5v3.8h6.5V21z"/><linearGradient id="SVGID_6_" gradientUnits="userSpaceOnUse" x1="23.514" y1="9.094" x2="30" y2="9.094" gradientTransform="matrix(1 0 0 -1 0 32)"><stop offset="0" stop-color="#2839ba"/><stop offset="1" stop-color="#3072b7"/></linearGradient><path class="st6" d="M30 21h-6.5v3.8H30V21z"/><linearGradient id="SVGID_7_" gradientUnits="userSpaceOnUse" x1="15.422" y1="13.343" x2="22.417" y2="15.388" gradientTransform="matrix(1 0 0 -1 0 32)"><stop offset="0" stop-color="#b4197c"/><stop offset="1" stop-color="#373aac"/></linearGradient><path class="st7" d="M22.2 15.7h-6.5v3.8h6.5v-3.8z"/><linearGradient id="SVGID_8_" gradientUnits="userSpaceOnUse" x1="7.608" y1="15.629" x2="14.552" y2="13.102" gradientTransform="matrix(1 0 0 -1 0 32)"><stop offset="0" stop-color="#ffcb00"/><stop offset="1" stop-color="#d12f5f"/></linearGradient><path class="st8" d="M14.3 15.7H7.8v3.8h6.5v-3.8z"/><linearGradient id="SVGID_9_" gradientUnits="userSpaceOnUse" x1="8.386" y1="22.122" x2="13.775" y2="17.148" gradientTransform="matrix(1 0 0 -1 0 32)"><stop offset="0" stop-color="#ffcf00"/><stop offset="1" stop-color="#ed743b"/></linearGradient><path class="st9" d="M14.3 10.5H7.8v3.8h6.5v-3.8z"/></g></svg>