<svg id="Layer_1" xmlns="http://www.w3.org/2000/svg" viewBox="0 0 30 30"><style>.st0{fill:#111}</style><path class="st0" d="M.06 19.8c.11.06.29.06.47.06.42 0 .82-.11.82-.71v-7.87h2.08v8.05c0 1.54-.59 2.3-2.72 2.3-.24 0-.47 0-.71-.06.06 0 .06-1.77.06-1.77zm3.37-9.71H1.37V8.37h2.08v1.72h-.02zM12.31 18.91H10.3v-1.06h-.06c-.53.82-1.48 1.24-2.3 1.24-2.25 0-2.78-1.24-2.78-3.14v-4.67h2.13v4.31c0 1.24.35 1.9 1.37 1.9 1.13 0 1.66-.65 1.66-2.19v-4.02h2.08l-.09 7.63zM13.73 11.27h2.01v1.06h.06c.53-.82 1.48-1.24 2.3-1.24 2.25 0 2.78 1.24 2.78 3.14v4.73H18.8v-4.31c0-1.24-.35-1.9-1.37-1.9-1.13 0-1.66.65-1.66 2.19v4.02h-2.06v-7.69h.02zM26.04 11.09c2.43 0 3.96 1.59 3.96 4.02s-1.54 4.02-3.96 4.02-3.96-1.59-3.96-4.02c-.01-2.41 1.59-4.02 3.96-4.02zm0 6.45c1.42 0 1.83-1.24 1.83-2.43 0-1.24-.42-2.48-1.83-2.48-1.42 0-1.83 1.24-1.83 2.48s.4 2.43 1.83 2.43z"/></svg>