<svg id="Layer_1" xmlns="http://www.w3.org/2000/svg" viewBox="0 0 30 30"><style>.st0{fill:#111}</style><path class="st0" d="M18.03 21.45c-.87.82-1.89 1.47-3.05 1.85a8.153 8.153 0 0 1-3.05-1.85h6.1z"/><path class="st0" d="M9.27 9.36c-1.2-1.02-2.64-1.78-4.21-2.2V16.94c0 5.49 4.42 9.88 9.92 9.88s9.92-4.4 9.92-9.88V7.17c-1.57.43-3 1.16-4.21 2.19a9.82 9.82 0 0 0-5.71-1.81c-2.14 0-4.11.68-5.71 1.81zm.02-2.85c1.7-.89 3.64-1.38 5.69-1.38 2.04 0 3.97.5 5.69 1.38.39-.24.82-.49 1.25-.71-1.82-1.68-4.26-2.7-6.94-2.7-2.67 0-5.11 1.04-6.94 2.73.4.2.88.45 1.25.68zM5.7 4.93C7.99 2.38 11.3.77 15.01.77c3.69 0 7.02 1.6 9.31 4.16.97-.27 1.98-.41 3.02-.45v4.19c1.6.98 2.66 2.77 2.66 4.78 0 2.03-1.07 3.8-2.67 4.79l-.01.1c-.67 6.16-5.97 10.88-12.37 10.88S3.32 24.41 2.65 18.24A5.688 5.688 0 0 1 0 13.43c0-2.01 1.05-3.79 2.65-4.78v-4.2c1.04.06 2.05.22 3.05.48z"/><path class="st0" d="M18.06 16.96c1.66-.2 4.42-.16 4.42-.16-.05.5.01 1.97-1.59 2.86-.27.15-.93.37-1.54.39-1.54.07-3.72.1-3.72.1.41-1.73 1.05-3.02 2.43-3.19zM11.89 16.96c1.38.15 2.01 1.45 2.4 3.18 0 0-2.18-.01-3.72-.1-.61-.02-1.27-.24-1.54-.39-1.59-.93-1.54-2.37-1.59-2.86.02 0 2.8-.01 4.45.17zM17.89 24.8c-.83.51-1.84.8-2.91.8-1.09 0-2.08-.29-2.91-.8 0 0 .06-.32.22-.58.21-.3.38-.39.38-.39.72.21 1.48.32 2.3.32.81 0 1.59-.1 2.3-.32 0 0 .22.12.41.44.2.29.21.53.21.53z"/><g><path class="st0" d="M27.74 2.97c.28 0 .51.2.51.5s-.24.5-.51.5c-.28 0-.51-.2-.51-.5s.25-.5.51-.5zm0 .9c.21 0 .37-.16.37-.39 0-.22-.16-.38-.37-.38s-.37.16-.37.38c-.01.22.18.39.37.39zm-.19-.68h.21c.14 0 .22.05.22.16 0 .1-.07.14-.15.15l.15.24h-.1l-.14-.23h-.07v.23h-.1l-.02-.55zm.1.24h.1c.07 0 .1-.01.1-.08 0-.06-.07-.07-.1-.07h-.1v.15z"/></g></svg>