<svg id="Layer_1" xmlns="http://www.w3.org/2000/svg" viewBox="0 0 30 30"><style>.st0{fill:url(#SVGID_1_)}.st1{fill:#fff}</style><linearGradient id="SVGID_1_" gradientUnits="userSpaceOnUse" x1="15" y1="30" x2="15"><stop offset="0" stop-color="#25f"/><stop offset="1" stop-color="#0af"/></linearGradient><path class="st0" d="M15 0C6.72 0 0 6.71 0 15c0 8.28 6.72 15 15 15 8.28 0 15-6.72 15-15 0-8.29-6.72-15-15-15z"/><path class="st1" d="M12.36 20.89c-1.6 0-3.2-.53-4.42-1.59-1.51-1.3-2.4-3.08-2.52-5-.12-1.87.51-3.67 1.78-5.06 1.42-1.57 3.96-4.01 4.07-4.11.69-.66 1.78-.64 2.44.06.66.69.64 1.79-.05 2.45-.03.02-2.56 2.46-3.9 3.93-.63.7-.95 1.59-.89 2.52.06.98.53 1.9 1.33 2.59 1.05.91 3.12 1.11 4.41-.05.77-.69 1.71-1.71 1.71-1.72.65-.7 1.74-.75 2.44-.1s.75 1.74.1 2.45c-.04.04-1.06 1.15-1.95 1.95-1.25 1.11-2.9 1.68-4.55 1.68zm10.45-.13c-1.42 1.57-3.96 4-4.07 4.11-.33.32-.76.48-1.19.48-.46 0-.91-.18-1.25-.53-.66-.69-.64-1.79.05-2.45.03-.03 2.56-2.46 3.9-3.93.63-.7.95-1.59.89-2.52-.06-.98-.53-1.9-1.33-2.59-1.05-.91-3.12-1.11-4.41.05-.77.69-1.71 1.71-1.71 1.72-.65.7-1.74.75-2.44.1s-.75-1.74-.1-2.45c.04-.05 1.06-1.15 1.95-1.96 2.46-2.21 6.49-2.25 8.98-.1 1.51 1.3 2.4 3.08 2.52 5 .1 1.88-.53 3.68-1.79 5.07z"/></svg>