<svg id="Layer_1" xmlns="http://www.w3.org/2000/svg" viewBox="0 0 30 30"><style>.st0{fill:#1ed760}</style><path class="st0" d="M15 0C6.72 0 0 6.72 0 15s6.72 15 15 15 15-6.72 15-15c0-8.29-6.72-15-15-15zm6.88 21.63c-.27.44-.84.58-1.28.31-3.52-2.15-7.96-2.64-13.18-1.45a.936.936 0 0 1-1.15-.66c-.14-.5.16-1.01.66-1.15.02-.01.05-.01.07-.02 5.71-1.31 10.61-.74 14.57 1.67.44.29.58.86.31 1.3zm1.83-4.08c-.34.55-1.06.72-1.61.39-4.03-2.48-10.18-3.2-14.95-1.75-.61.21-1.28-.12-1.48-.73-.21-.61.12-1.28.73-1.48.03-.01.05-.02.08-.02 5.45-1.65 12.22-.85 16.85 1.99.55.33.72 1.05.38 1.6zm.16-4.25c-4.84-2.87-12.81-3.13-17.43-1.73-.74.23-1.53-.19-1.75-.94-.22-.74.2-1.53.94-1.75 5.3-1.61 14.11-1.3 19.67 2.01.67.4.89 1.26.49 1.92-.39.66-1.25.88-1.92.49z"/></svg>