<svg id="Layer_1" xmlns="http://www.w3.org/2000/svg" viewBox="0 0 30 30"><style>.st0{fill:#6cc9d2}.st1{fill:#ed3558}</style><g id="页面1"><g id="编组-2" transform="translate(.98)"><path id="路径" class="st0" d="M11.1 11.8v-1.2c-.4-.1-.8-.1-1.2-.1-4 0-7.5 2.6-8.7 6.4s.2 7.9 3.5 10.2c-2.4-2.6-3.1-6.4-1.7-9.7s4.5-5.5 8.1-5.6z"/><path id="路径_1_" class="st0" d="M11.3 25.1c2.2 0 4.1-1.8 4.1-4V1.3H19V0h-5v19.8c-.1 2.2-1.9 4-4.1 4-.7 0-1.3-.2-1.9-.5.7 1.1 2 1.8 3.3 1.8z"/><path id="路径_2_" class="st0" d="M25.9 8V6.9c-1.3 0-2.6-.4-3.7-1.1.9 1.1 2.2 1.9 3.7 2.2z"/><path id="路径_3_" class="st1" d="M22.1 5.7c-1.1-1.2-1.7-2.8-1.7-4.5h-1.3c.3 1.9 1.4 3.5 3 4.5z"/><path id="路径_4_" class="st1" d="M9.9 15.5c-1.9 0-3.6 1.3-4 3.2-.5 1.9.4 3.8 2.1 4.7-.9-1.3-1-2.9-.3-4.3s2.1-2.3 3.7-2.3c.4 0 .8.1 1.2.2v-5c-.4-.1-.8-.1-1.2-.1h-.2v3.8c-.5-.2-.9-.2-1.3-.2z"/><path id="路径_5_" class="st1" d="M25.9 8v3.8c-2.5 0-4.9-.8-6.9-2.2v10.1c0 5-4.1 9.1-9.1 9.1-1.9 0-3.7-.6-5.2-1.6 2.5 2.7 6.5 3.6 10 2.3s5.8-4.7 5.8-8.5V11c2 1.4 4.4 2.2 6.9 2.2V8.1c-.6 0-1.1 0-1.5-.1z"/><path id="路径_6_" d="M19 19.7V9.6c2 1.4 4.4 2.2 6.9 2.2V8c-1.5-.3-2.8-1.1-3.8-2.2-1.6-1-2.7-2.7-3-4.5h-3.6v19.8c-.1 1.8-1.3 3.3-3 3.8s-3.5-.1-4.6-1.5c-1.7-.9-2.6-2.8-2.1-4.7s2.1-3.2 4-3.2c.4 0 .8.1 1.2.2v-3.8c-3.6.1-6.8 2.2-8.2 5.6s-.7 7.2 1.8 9.8c1.5 1 3.4 1.6 5.2 1.5 5.1-.1 9.2-4.1 9.2-9.1z"/></g></g></svg>