<?xml version="1.0" encoding="utf-8"?>
<!-- Generator: Adobe Illustrator 23.1.1, SVG Export Plug-In . SVG Version: 6.00 Build 0)  -->
<svg version="1.1" id="Group_9825" xmlns="http://www.w3.org/2000/svg" xmlns:xlink="http://www.w3.org/1999/xlink" x="0px" y="0px"
	 viewBox="0 0 100.5 29.2" style="enable-background:new 0 0 100.5 29.2;" xml:space="preserve">
<style type="text/css">
	.st0{fill:#FFFFFF;}
</style>
<g>
	<g id="Group_9825_1_" transform="translate(35.507 7.905)">
		<rect id="Rectangle_32118" x="-11.5" y="0" class="st0" width="2" height="13.4"/>
		<rect id="Rectangle_32119" x="42.3" y="0" class="st0" width="2" height="13.4"/>
		<path id="Path_5770" class="st0" d="M65,0H55v1.7h4v11.7h2V1.7h4V0z"/>
		<path id="Path_5771" class="st0" d="M29.8,6.5c1-0.5,1.6-1.6,1.6-2.8c0-2.1-1.7-3.8-3.8-3.8l0,0h-5.9v13.4H28
			c2.1,0,3.8-1.7,3.8-3.8C31.7,8.3,30.9,7.1,29.8,6.5z M23.7,1.7h3.5c1.2,0,2.1,1,2,2.1c0,1.1-0.9,2-2,2h-3.5
			C23.7,5.8,23.7,1.7,23.7,1.7z M27.7,11.7h-3.9V7.5h3.9c1.2,0,2.1,0.9,2.1,2.1S28.8,11.7,27.7,11.7z"/>
		<path id="Path_5772" class="st0" d="M-22.1,13.4L-27.7,0h-2.2l-5.6,13.4h2.2l4.5-10.8l4.5,10.8H-22.1z"/>
		<path id="Path_5773" class="st0" d="M8.8,7.9c2.1-1,2.9-3.6,1.8-5.6C10,0.9,8.5,0,6.9,0H1v13.4h2v-5h3.8l2.1,5h2.2L8.8,7.9
			L8.8,7.9z M6.6,6.7H3.1v-5h3.5c1.4,0,2.5,1.1,2.5,2.5S8,6.7,6.6,6.7z"/>
	</g>
</g>
</svg>
